<svg width="161" height="168" viewBox="0 0 161 168" fill="none" xmlns="http://www.w3.org/2000/svg">
<path d="M15.7489 161.175C14.5823 161.175 13.5323 160.975 12.5989 160.575C11.6656 160.158 10.9323 159.575 10.3989 158.825C9.86559 158.075 9.59893 157.2 9.59893 156.2H12.6489C12.7156 156.95 13.0073 157.567 13.5239 158.05C14.0573 158.533 14.7989 158.775 15.7489 158.775C16.7323 158.775 17.4989 158.542 18.0489 158.075C18.5989 157.592 18.8739 156.975 18.8739 156.225C18.8739 155.642 18.6989 155.167 18.3489 154.8C18.0156 154.433 17.5906 154.15 17.0739 153.95C16.5739 153.75 15.8739 153.533 14.9739 153.3C13.8406 153 12.9156 152.7 12.1989 152.4C11.4989 152.083 10.8989 151.6 10.3989 150.95C9.89893 150.3 9.64893 149.433 9.64893 148.35C9.64893 147.35 9.89893 146.475 10.3989 145.725C10.8989 144.975 11.5989 144.4 12.4989 144C13.3989 143.6 14.4406 143.4 15.6239 143.4C17.3073 143.4 18.6823 143.825 19.7489 144.675C20.8323 145.508 21.4323 146.658 21.5489 148.125H18.3989C18.3489 147.492 18.0489 146.95 17.4989 146.5C16.9489 146.05 16.2239 145.825 15.3239 145.825C14.5073 145.825 13.8406 146.033 13.3239 146.45C12.8073 146.867 12.5489 147.467 12.5489 148.25C12.5489 148.783 12.7073 149.225 13.0239 149.575C13.3573 149.908 13.7739 150.175 14.2739 150.375C14.7739 150.575 15.4573 150.792 16.3239 151.025C17.4739 151.342 18.4073 151.658 19.1239 151.975C19.8573 152.292 20.4739 152.783 20.9739 153.45C21.4906 154.1 21.7489 154.975 21.7489 156.075C21.7489 156.958 21.5073 157.792 21.0239 158.575C20.5573 159.358 19.8656 159.992 18.9489 160.475C18.0489 160.942 16.9823 161.175 15.7489 161.175ZM28.4368 149.55V157.175C28.4368 157.692 28.5535 158.067 28.7868 158.3C29.0368 158.517 29.4535 158.625 30.0368 158.625H31.7868V161H29.5368C28.2535 161 27.2701 160.7 26.5868 160.1C25.9035 159.5 25.5618 158.525 25.5618 157.175V149.55H23.9368V147.225H25.5618V143.8H28.4368V147.225H31.7868V149.55H28.4368ZM40.3886 161.225C39.0886 161.225 37.9136 160.933 36.8636 160.35C35.8136 159.75 34.9886 158.917 34.3886 157.85C33.7886 156.767 33.4886 155.517 33.4886 154.1C33.4886 152.7 33.7969 151.458 34.4136 150.375C35.0302 149.292 35.8719 148.458 36.9386 147.875C38.0052 147.292 39.1969 147 40.5136 147C41.8302 147 43.0219 147.292 44.0886 147.875C45.1552 148.458 45.9969 149.292 46.6136 150.375C47.2302 151.458 47.5386 152.7 47.5386 154.1C47.5386 155.5 47.2219 156.742 46.5886 157.825C45.9552 158.908 45.0886 159.75 43.9886 160.35C42.9052 160.933 41.7052 161.225 40.3886 161.225ZM40.3886 158.75C41.1219 158.75 41.8052 158.575 42.4386 158.225C43.0886 157.875 43.6136 157.35 44.0136 156.65C44.4136 155.95 44.6136 155.1 44.6136 154.1C44.6136 153.1 44.4219 152.258 44.0386 151.575C43.6552 150.875 43.1469 150.35 42.5136 150C41.8802 149.65 41.1969 149.475 40.4636 149.475C39.7302 149.475 39.0469 149.65 38.4136 150C37.7969 150.35 37.3052 150.875 36.9386 151.575C36.5719 152.258 36.3886 153.1 36.3886 154.1C36.3886 155.583 36.7636 156.733 37.5136 157.55C38.2802 158.35 39.2386 158.75 40.3886 158.75ZM49.406 154.1C49.406 152.683 49.6893 151.442 50.256 150.375C50.8393 149.292 51.6393 148.458 52.656 147.875C53.6726 147.292 54.8393 147 56.156 147C57.8226 147 59.1976 147.4 60.281 148.2C61.381 148.983 62.1226 150.108 62.506 151.575H59.431C59.181 150.892 58.781 150.358 58.231 149.975C57.681 149.592 56.9893 149.4 56.156 149.4C54.9893 149.4 54.056 149.817 53.356 150.65C52.6726 151.467 52.331 152.617 52.331 154.1C52.331 155.583 52.6726 156.742 53.356 157.575C54.056 158.408 54.9893 158.825 56.156 158.825C57.806 158.825 58.8976 158.1 59.431 156.65H62.506C62.106 158.05 61.356 159.167 60.256 160C59.156 160.817 57.7893 161.225 56.156 161.225C54.8393 161.225 53.6726 160.933 52.656 160.35C51.6393 159.75 50.8393 158.917 50.256 157.85C49.6893 156.767 49.406 155.517 49.406 154.1ZM70.7962 154.125L77.1462 161H73.2962L68.1962 155.075V161H65.3462V142.5H68.1962V153.25L73.1962 147.225H77.1462L70.7962 154.125ZM84.914 161.175C83.7473 161.175 82.6973 160.975 81.764 160.575C80.8306 160.158 80.0973 159.575 79.564 158.825C79.0306 158.075 78.764 157.2 78.764 156.2H81.814C81.8806 156.95 82.1723 157.567 82.689 158.05C83.2223 158.533 83.964 158.775 84.914 158.775C85.8973 158.775 86.664 158.542 87.214 158.075C87.764 157.592 88.039 156.975 88.039 156.225C88.039 155.642 87.864 155.167 87.514 154.8C87.1806 154.433 86.7556 154.15 86.239 153.95C85.739 153.75 85.039 153.533 84.139 153.3C83.0056 153 82.0806 152.7 81.364 152.4C80.664 152.083 80.064 151.6 79.564 150.95C79.064 150.3 78.814 149.433 78.814 148.35C78.814 147.35 79.064 146.475 79.564 145.725C80.064 144.975 80.764 144.4 81.664 144C82.564 143.6 83.6056 143.4 84.789 143.4C86.4723 143.4 87.8473 143.825 88.914 144.675C89.9973 145.508 90.5973 146.658 90.714 148.125H87.564C87.514 147.492 87.214 146.95 86.664 146.5C86.114 146.05 85.389 145.825 84.489 145.825C83.6723 145.825 83.0056 146.033 82.489 146.45C81.9723 146.867 81.714 147.467 81.714 148.25C81.714 148.783 81.8723 149.225 82.189 149.575C82.5223 149.908 82.939 150.175 83.439 150.375C83.939 150.575 84.6223 150.792 85.489 151.025C86.639 151.342 87.5723 151.658 88.289 151.975C89.0223 152.292 89.639 152.783 90.139 153.45C90.6556 154.1 90.914 154.975 90.914 156.075C90.914 156.958 90.6723 157.792 90.189 158.575C89.7223 159.358 89.0306 159.992 88.114 160.475C87.214 160.942 86.1473 161.175 84.914 161.175ZM106.902 153.775C106.902 154.292 106.869 154.758 106.802 155.175H96.2769C96.3602 156.275 96.7685 157.158 97.5019 157.825C98.2352 158.492 99.1352 158.825 100.202 158.825C101.735 158.825 102.819 158.183 103.452 156.9H106.527C106.11 158.167 105.352 159.208 104.252 160.025C103.169 160.825 101.819 161.225 100.202 161.225C98.8852 161.225 97.7019 160.933 96.6519 160.35C95.6185 159.75 94.8019 158.917 94.2019 157.85C93.6185 156.767 93.3269 155.517 93.3269 154.1C93.3269 152.683 93.6102 151.442 94.1769 150.375C94.7602 149.292 95.5685 148.458 96.6019 147.875C97.6519 147.292 98.8519 147 100.202 147C101.502 147 102.66 147.283 103.677 147.85C104.694 148.417 105.485 149.217 106.052 150.25C106.619 151.267 106.902 152.442 106.902 153.775ZM103.927 152.875C103.91 151.825 103.535 150.983 102.802 150.35C102.069 149.717 101.16 149.4 100.077 149.4C99.0935 149.4 98.2519 149.717 97.5519 150.35C96.8519 150.967 96.4352 151.808 96.3019 152.875H103.927ZM116.657 147C117.74 147 118.707 147.225 119.557 147.675C120.423 148.125 121.098 148.792 121.582 149.675C122.065 150.558 122.307 151.625 122.307 152.875V161H119.482V153.3C119.482 152.067 119.173 151.125 118.557 150.475C117.94 149.808 117.098 149.475 116.032 149.475C114.965 149.475 114.115 149.808 113.482 150.475C112.865 151.125 112.557 152.067 112.557 153.3V161H109.707V147.225H112.557V148.8C113.023 148.233 113.615 147.792 114.332 147.475C115.065 147.158 115.84 147 116.657 147ZM130.942 161.225C129.859 161.225 128.884 161.033 128.017 160.65C127.167 160.25 126.492 159.717 125.992 159.05C125.492 158.367 125.225 157.608 125.192 156.775H128.142C128.192 157.358 128.467 157.85 128.967 158.25C129.484 158.633 130.125 158.825 130.892 158.825C131.692 158.825 132.309 158.675 132.742 158.375C133.192 158.058 133.417 157.658 133.417 157.175C133.417 156.658 133.167 156.275 132.667 156.025C132.184 155.775 131.409 155.5 130.342 155.2C129.309 154.917 128.467 154.642 127.817 154.375C127.167 154.108 126.6 153.7 126.117 153.15C125.65 152.6 125.417 151.875 125.417 150.975C125.417 150.242 125.634 149.575 126.067 148.975C126.5 148.358 127.117 147.875 127.917 147.525C128.734 147.175 129.667 147 130.717 147C132.284 147 133.542 147.4 134.492 148.2C135.459 148.983 135.975 150.058 136.042 151.425H133.192C133.142 150.808 132.892 150.317 132.442 149.95C131.992 149.583 131.384 149.4 130.617 149.4C129.867 149.4 129.292 149.542 128.892 149.825C128.492 150.108 128.292 150.483 128.292 150.95C128.292 151.317 128.425 151.625 128.692 151.875C128.959 152.125 129.284 152.325 129.667 152.475C130.05 152.608 130.617 152.783 131.367 153C132.367 153.267 133.184 153.542 133.817 153.825C134.467 154.092 135.025 154.492 135.492 155.025C135.959 155.558 136.2 156.267 136.217 157.15C136.217 157.933 136 158.633 135.567 159.25C135.134 159.867 134.517 160.35 133.717 160.7C132.934 161.05 132.009 161.225 130.942 161.225ZM151.921 153.775C151.921 154.292 151.888 154.758 151.821 155.175H141.296C141.38 156.275 141.788 157.158 142.521 157.825C143.255 158.492 144.155 158.825 145.221 158.825C146.755 158.825 147.838 158.183 148.471 156.9H151.546C151.13 158.167 150.371 159.208 149.271 160.025C148.188 160.825 146.838 161.225 145.221 161.225C143.905 161.225 142.721 160.933 141.671 160.35C140.638 159.75 139.821 158.917 139.221 157.85C138.638 156.767 138.346 155.517 138.346 154.1C138.346 152.683 138.63 151.442 139.196 150.375C139.78 149.292 140.588 148.458 141.621 147.875C142.671 147.292 143.871 147 145.221 147C146.521 147 147.68 147.283 148.696 147.85C149.713 148.417 150.505 149.217 151.071 150.25C151.638 151.267 151.921 152.442 151.921 153.775ZM148.946 152.875C148.93 151.825 148.555 150.983 147.821 150.35C147.088 149.717 146.18 149.4 145.096 149.4C144.113 149.4 143.271 149.717 142.571 150.35C141.871 150.967 141.455 151.808 141.321 152.875H148.946Z" fill="white"/>
<path d="M36 17L28 23.75V69.25V115H80.5H133V69V23L124.5 16.5C116 10.25 114.75 10 80 10C44.75 10.25 44.25 10.25 36 17ZM78 18.75C78 21.75 74 22.5 57.5 22.5C39 22.5 37.5 22.25 42 18.75C48.75 13.5 78 13.5 78 18.75ZM119 18.75C123.5 22.25 122 22.5 103.5 22.5C87 22.5 83 21.75 83 18.75C83 13.5 112.25 13.5 119 18.75ZM128 68.75V110H80.5H33V68.75V27.5H80.5H128V68.75Z" fill="white"/>
<path d="M66.5 41.25C64 47.75 69 50.25 82 49.5C92.25 48.75 94.25 48 94.25 43.75C94.25 39.5 92.25 38.75 81 38C70.75 37.5 67.5 38 66.5 41.25Z" fill="white"/>
<path d="M90.5 81.25C88.25 83.75 88.25 85 90.25 85C91.75 85 93 87.25 93 90C93 92.75 94.25 95 95.5 95C97 95 98 92.75 98 90C98 87.25 99.25 85 100.75 85C102.75 85 102.75 83.75 100.5 81.25C98.75 79.25 96.5 77.5 95.5 77.5C94.5 77.5 92.25 79.25 90.5 81.25Z" fill="white"/>
<path d="M108 81.25C105.75 83.75 105.75 85 107.75 85C109.25 85 110.5 87.25 110.5 90C110.5 92.75 111.75 95 113 95C114.5 95 115.5 92.75 115.5 90C115.5 87.25 116.75 85 118.25 85C120.25 85 120.25 83.75 118 81.25C116.25 79.25 114 77.5 113 77.5C112 77.5 109.75 79.25 108 81.25Z" fill="white"/>
<path d="M88 100C88 101.5 95 102.5 104.25 102.5C113.5 102.5 120.5 101.5 120.5 100C120.5 98.5 113.5 97.5 104.25 97.5C95 97.5 88 98.5 88 100Z" fill="white"/>
</svg>
